%
M48
M72
T01C0.02362
T02C0.03150
T03C0.03200
T04C0.03937
T05C0.04000
T06C0.04724
T07C0.07480
%
T01
X71800Y171800
X146800Y126800
X166800Y106800
X156800Y91800
X161800Y86800
X151800Y91800
X156800Y66800
X161800Y61800
X166800Y51800
X126800Y56800
X121800Y96800
X101800Y96800
X76800Y76800
X66800Y96800
X56800Y76800
X46800Y81800
X29300Y76800
X51800Y21800
X91800Y6800
T02
X36879Y165501
X32154Y168650
X36879Y171800
X32154Y174950
X36879Y178099
T03
X76800Y156800
X86800Y156800
X81800Y141800
X81800Y131800
X81800Y121800
X81800Y111800
X81800Y101800
X81800Y91800
X81800Y81800
X81800Y71800
X81800Y61800
X81800Y51800
X81800Y41800
X81800Y31800
X81800Y21800
X81800Y11800
X66800Y11800
X66800Y21800
X26800Y15550
X18050Y15550
X8050Y15550
X26800Y55550
X111800Y51800
X111800Y61800
X111800Y71800
X111800Y81800
X111800Y91800
X111800Y101800
X111800Y111800
X111800Y121800
X111800Y131800
X111800Y141800
X125550Y141800
X125550Y131800
X161800Y156800
X161800Y166800
X149300Y181800
X131800Y176800
X131800Y186800
X111800Y181800
X106800Y174300
X101800Y181800
X126800Y76800
X136800Y76800
X131800Y46800
X131800Y31800
X111800Y31800
X111800Y21800
X111800Y11800
X111800Y41800
X171800Y46800
X171800Y31800
X186800Y154300
X186800Y164300
X189300Y181800
T04
X60176Y185550
X68050Y185550
X75924Y185550
T05
X6800Y136800
X6800Y126800
X6800Y116800
X6800Y106800
X6800Y96800
X6800Y86800
X6800Y76800
X6800Y66800
X64300Y65550
X64300Y55550
X64300Y75550
X126800Y15550
X136800Y15550
X146800Y15550
X161800Y15550
X171800Y15550
X181800Y15550
X194300Y11800
X194300Y21800
X194300Y31800
X194300Y41800
X194300Y51800
X194300Y66800
X194300Y76800
X194300Y86800
X194300Y96800
X194300Y106800
X194300Y116800
X194300Y126800
X194300Y136800
T06
X52302Y185550
X83798Y185550
T07
X16800Y186170
X16800Y157430
M30
