G75*
%MOIN*%
%OFA0B0*%
%FSLAX25Y25*%
%IPPOS*%
%LPD*%
%AMOC8*
5,1,8,0,0,1.08239X$1,22.5*
%
%ADD10C,0.00000*%
D10*
X0001800Y0001800D02*
X0001800Y0198650D01*
X0198650Y0198650D01*
X0198650Y0001800D01*
X0001800Y0001800D01*
X0049940Y0185550D02*
X0049942Y0185647D01*
X0049948Y0185744D01*
X0049958Y0185840D01*
X0049972Y0185936D01*
X0049990Y0186032D01*
X0050011Y0186126D01*
X0050037Y0186220D01*
X0050066Y0186312D01*
X0050100Y0186403D01*
X0050136Y0186493D01*
X0050177Y0186581D01*
X0050221Y0186667D01*
X0050269Y0186752D01*
X0050320Y0186834D01*
X0050374Y0186915D01*
X0050432Y0186993D01*
X0050493Y0187068D01*
X0050556Y0187141D01*
X0050623Y0187212D01*
X0050693Y0187279D01*
X0050765Y0187344D01*
X0050840Y0187405D01*
X0050918Y0187464D01*
X0050997Y0187519D01*
X0051079Y0187571D01*
X0051163Y0187619D01*
X0051249Y0187664D01*
X0051337Y0187706D01*
X0051426Y0187744D01*
X0051517Y0187778D01*
X0051609Y0187808D01*
X0051702Y0187835D01*
X0051797Y0187857D01*
X0051892Y0187876D01*
X0051988Y0187891D01*
X0052084Y0187902D01*
X0052181Y0187909D01*
X0052278Y0187912D01*
X0052375Y0187911D01*
X0052472Y0187906D01*
X0052568Y0187897D01*
X0052664Y0187884D01*
X0052760Y0187867D01*
X0052855Y0187846D01*
X0052948Y0187822D01*
X0053041Y0187793D01*
X0053133Y0187761D01*
X0053223Y0187725D01*
X0053311Y0187686D01*
X0053398Y0187642D01*
X0053483Y0187596D01*
X0053566Y0187545D01*
X0053647Y0187492D01*
X0053725Y0187435D01*
X0053802Y0187375D01*
X0053875Y0187312D01*
X0053946Y0187246D01*
X0054014Y0187177D01*
X0054080Y0187105D01*
X0054142Y0187031D01*
X0054201Y0186954D01*
X0054257Y0186875D01*
X0054310Y0186793D01*
X0054360Y0186710D01*
X0054405Y0186624D01*
X0054448Y0186537D01*
X0054487Y0186448D01*
X0054522Y0186358D01*
X0054553Y0186266D01*
X0054580Y0186173D01*
X0054604Y0186079D01*
X0054624Y0185984D01*
X0054640Y0185888D01*
X0054652Y0185792D01*
X0054660Y0185695D01*
X0054664Y0185598D01*
X0054664Y0185502D01*
X0054660Y0185405D01*
X0054652Y0185308D01*
X0054640Y0185212D01*
X0054624Y0185116D01*
X0054604Y0185021D01*
X0054580Y0184927D01*
X0054553Y0184834D01*
X0054522Y0184742D01*
X0054487Y0184652D01*
X0054448Y0184563D01*
X0054405Y0184476D01*
X0054360Y0184390D01*
X0054310Y0184307D01*
X0054257Y0184225D01*
X0054201Y0184146D01*
X0054142Y0184069D01*
X0054080Y0183995D01*
X0054014Y0183923D01*
X0053946Y0183854D01*
X0053875Y0183788D01*
X0053802Y0183725D01*
X0053725Y0183665D01*
X0053647Y0183608D01*
X0053566Y0183555D01*
X0053483Y0183504D01*
X0053398Y0183458D01*
X0053311Y0183414D01*
X0053223Y0183375D01*
X0053133Y0183339D01*
X0053041Y0183307D01*
X0052948Y0183278D01*
X0052855Y0183254D01*
X0052760Y0183233D01*
X0052664Y0183216D01*
X0052568Y0183203D01*
X0052472Y0183194D01*
X0052375Y0183189D01*
X0052278Y0183188D01*
X0052181Y0183191D01*
X0052084Y0183198D01*
X0051988Y0183209D01*
X0051892Y0183224D01*
X0051797Y0183243D01*
X0051702Y0183265D01*
X0051609Y0183292D01*
X0051517Y0183322D01*
X0051426Y0183356D01*
X0051337Y0183394D01*
X0051249Y0183436D01*
X0051163Y0183481D01*
X0051079Y0183529D01*
X0050997Y0183581D01*
X0050918Y0183636D01*
X0050840Y0183695D01*
X0050765Y0183756D01*
X0050693Y0183821D01*
X0050623Y0183888D01*
X0050556Y0183959D01*
X0050493Y0184032D01*
X0050432Y0184107D01*
X0050374Y0184185D01*
X0050320Y0184266D01*
X0050269Y0184348D01*
X0050221Y0184433D01*
X0050177Y0184519D01*
X0050136Y0184607D01*
X0050100Y0184697D01*
X0050066Y0184788D01*
X0050037Y0184880D01*
X0050011Y0184974D01*
X0049990Y0185068D01*
X0049972Y0185164D01*
X0049958Y0185260D01*
X0049948Y0185356D01*
X0049942Y0185453D01*
X0049940Y0185550D01*
X0081436Y0185550D02*
X0081438Y0185647D01*
X0081444Y0185744D01*
X0081454Y0185840D01*
X0081468Y0185936D01*
X0081486Y0186032D01*
X0081507Y0186126D01*
X0081533Y0186220D01*
X0081562Y0186312D01*
X0081596Y0186403D01*
X0081632Y0186493D01*
X0081673Y0186581D01*
X0081717Y0186667D01*
X0081765Y0186752D01*
X0081816Y0186834D01*
X0081870Y0186915D01*
X0081928Y0186993D01*
X0081989Y0187068D01*
X0082052Y0187141D01*
X0082119Y0187212D01*
X0082189Y0187279D01*
X0082261Y0187344D01*
X0082336Y0187405D01*
X0082414Y0187464D01*
X0082493Y0187519D01*
X0082575Y0187571D01*
X0082659Y0187619D01*
X0082745Y0187664D01*
X0082833Y0187706D01*
X0082922Y0187744D01*
X0083013Y0187778D01*
X0083105Y0187808D01*
X0083198Y0187835D01*
X0083293Y0187857D01*
X0083388Y0187876D01*
X0083484Y0187891D01*
X0083580Y0187902D01*
X0083677Y0187909D01*
X0083774Y0187912D01*
X0083871Y0187911D01*
X0083968Y0187906D01*
X0084064Y0187897D01*
X0084160Y0187884D01*
X0084256Y0187867D01*
X0084351Y0187846D01*
X0084444Y0187822D01*
X0084537Y0187793D01*
X0084629Y0187761D01*
X0084719Y0187725D01*
X0084807Y0187686D01*
X0084894Y0187642D01*
X0084979Y0187596D01*
X0085062Y0187545D01*
X0085143Y0187492D01*
X0085221Y0187435D01*
X0085298Y0187375D01*
X0085371Y0187312D01*
X0085442Y0187246D01*
X0085510Y0187177D01*
X0085576Y0187105D01*
X0085638Y0187031D01*
X0085697Y0186954D01*
X0085753Y0186875D01*
X0085806Y0186793D01*
X0085856Y0186710D01*
X0085901Y0186624D01*
X0085944Y0186537D01*
X0085983Y0186448D01*
X0086018Y0186358D01*
X0086049Y0186266D01*
X0086076Y0186173D01*
X0086100Y0186079D01*
X0086120Y0185984D01*
X0086136Y0185888D01*
X0086148Y0185792D01*
X0086156Y0185695D01*
X0086160Y0185598D01*
X0086160Y0185502D01*
X0086156Y0185405D01*
X0086148Y0185308D01*
X0086136Y0185212D01*
X0086120Y0185116D01*
X0086100Y0185021D01*
X0086076Y0184927D01*
X0086049Y0184834D01*
X0086018Y0184742D01*
X0085983Y0184652D01*
X0085944Y0184563D01*
X0085901Y0184476D01*
X0085856Y0184390D01*
X0085806Y0184307D01*
X0085753Y0184225D01*
X0085697Y0184146D01*
X0085638Y0184069D01*
X0085576Y0183995D01*
X0085510Y0183923D01*
X0085442Y0183854D01*
X0085371Y0183788D01*
X0085298Y0183725D01*
X0085221Y0183665D01*
X0085143Y0183608D01*
X0085062Y0183555D01*
X0084979Y0183504D01*
X0084894Y0183458D01*
X0084807Y0183414D01*
X0084719Y0183375D01*
X0084629Y0183339D01*
X0084537Y0183307D01*
X0084444Y0183278D01*
X0084351Y0183254D01*
X0084256Y0183233D01*
X0084160Y0183216D01*
X0084064Y0183203D01*
X0083968Y0183194D01*
X0083871Y0183189D01*
X0083774Y0183188D01*
X0083677Y0183191D01*
X0083580Y0183198D01*
X0083484Y0183209D01*
X0083388Y0183224D01*
X0083293Y0183243D01*
X0083198Y0183265D01*
X0083105Y0183292D01*
X0083013Y0183322D01*
X0082922Y0183356D01*
X0082833Y0183394D01*
X0082745Y0183436D01*
X0082659Y0183481D01*
X0082575Y0183529D01*
X0082493Y0183581D01*
X0082414Y0183636D01*
X0082336Y0183695D01*
X0082261Y0183756D01*
X0082189Y0183821D01*
X0082119Y0183888D01*
X0082052Y0183959D01*
X0081989Y0184032D01*
X0081928Y0184107D01*
X0081870Y0184185D01*
X0081816Y0184266D01*
X0081765Y0184348D01*
X0081717Y0184433D01*
X0081673Y0184519D01*
X0081632Y0184607D01*
X0081596Y0184697D01*
X0081562Y0184788D01*
X0081533Y0184880D01*
X0081507Y0184974D01*
X0081486Y0185068D01*
X0081468Y0185164D01*
X0081454Y0185260D01*
X0081444Y0185356D01*
X0081438Y0185453D01*
X0081436Y0185550D01*
M02*
