G75*
%MOIN*%
%OFA0B0*%
%FSLAX25Y25*%
%IPPOS*%
%LPD*%
%AMOC8*
5,1,8,0,0,1.08239X$1,22.5*
%
%ADD10C,0.00000*%
%ADD11OC8,0.05600*%
%ADD12C,0.07800*%
%ADD13C,0.05600*%
%ADD14C,0.06337*%
%ADD15C,0.05124*%
%ADD16C,0.05550*%
%ADD17C,0.11620*%
%ADD18OC8,0.06600*%
%ADD19C,0.06600*%
D10*
X0001800Y0001800D02*
X0001800Y0198650D01*
X0198650Y0198650D01*
X0198650Y0001800D01*
X0001800Y0001800D01*
X0049940Y0185550D02*
X0049942Y0185647D01*
X0049948Y0185744D01*
X0049958Y0185840D01*
X0049972Y0185936D01*
X0049990Y0186032D01*
X0050011Y0186126D01*
X0050037Y0186220D01*
X0050066Y0186312D01*
X0050100Y0186403D01*
X0050136Y0186493D01*
X0050177Y0186581D01*
X0050221Y0186667D01*
X0050269Y0186752D01*
X0050320Y0186834D01*
X0050374Y0186915D01*
X0050432Y0186993D01*
X0050493Y0187068D01*
X0050556Y0187141D01*
X0050623Y0187212D01*
X0050693Y0187279D01*
X0050765Y0187344D01*
X0050840Y0187405D01*
X0050918Y0187464D01*
X0050997Y0187519D01*
X0051079Y0187571D01*
X0051163Y0187619D01*
X0051249Y0187664D01*
X0051337Y0187706D01*
X0051426Y0187744D01*
X0051517Y0187778D01*
X0051609Y0187808D01*
X0051702Y0187835D01*
X0051797Y0187857D01*
X0051892Y0187876D01*
X0051988Y0187891D01*
X0052084Y0187902D01*
X0052181Y0187909D01*
X0052278Y0187912D01*
X0052375Y0187911D01*
X0052472Y0187906D01*
X0052568Y0187897D01*
X0052664Y0187884D01*
X0052760Y0187867D01*
X0052855Y0187846D01*
X0052948Y0187822D01*
X0053041Y0187793D01*
X0053133Y0187761D01*
X0053223Y0187725D01*
X0053311Y0187686D01*
X0053398Y0187642D01*
X0053483Y0187596D01*
X0053566Y0187545D01*
X0053647Y0187492D01*
X0053725Y0187435D01*
X0053802Y0187375D01*
X0053875Y0187312D01*
X0053946Y0187246D01*
X0054014Y0187177D01*
X0054080Y0187105D01*
X0054142Y0187031D01*
X0054201Y0186954D01*
X0054257Y0186875D01*
X0054310Y0186793D01*
X0054360Y0186710D01*
X0054405Y0186624D01*
X0054448Y0186537D01*
X0054487Y0186448D01*
X0054522Y0186358D01*
X0054553Y0186266D01*
X0054580Y0186173D01*
X0054604Y0186079D01*
X0054624Y0185984D01*
X0054640Y0185888D01*
X0054652Y0185792D01*
X0054660Y0185695D01*
X0054664Y0185598D01*
X0054664Y0185502D01*
X0054660Y0185405D01*
X0054652Y0185308D01*
X0054640Y0185212D01*
X0054624Y0185116D01*
X0054604Y0185021D01*
X0054580Y0184927D01*
X0054553Y0184834D01*
X0054522Y0184742D01*
X0054487Y0184652D01*
X0054448Y0184563D01*
X0054405Y0184476D01*
X0054360Y0184390D01*
X0054310Y0184307D01*
X0054257Y0184225D01*
X0054201Y0184146D01*
X0054142Y0184069D01*
X0054080Y0183995D01*
X0054014Y0183923D01*
X0053946Y0183854D01*
X0053875Y0183788D01*
X0053802Y0183725D01*
X0053725Y0183665D01*
X0053647Y0183608D01*
X0053566Y0183555D01*
X0053483Y0183504D01*
X0053398Y0183458D01*
X0053311Y0183414D01*
X0053223Y0183375D01*
X0053133Y0183339D01*
X0053041Y0183307D01*
X0052948Y0183278D01*
X0052855Y0183254D01*
X0052760Y0183233D01*
X0052664Y0183216D01*
X0052568Y0183203D01*
X0052472Y0183194D01*
X0052375Y0183189D01*
X0052278Y0183188D01*
X0052181Y0183191D01*
X0052084Y0183198D01*
X0051988Y0183209D01*
X0051892Y0183224D01*
X0051797Y0183243D01*
X0051702Y0183265D01*
X0051609Y0183292D01*
X0051517Y0183322D01*
X0051426Y0183356D01*
X0051337Y0183394D01*
X0051249Y0183436D01*
X0051163Y0183481D01*
X0051079Y0183529D01*
X0050997Y0183581D01*
X0050918Y0183636D01*
X0050840Y0183695D01*
X0050765Y0183756D01*
X0050693Y0183821D01*
X0050623Y0183888D01*
X0050556Y0183959D01*
X0050493Y0184032D01*
X0050432Y0184107D01*
X0050374Y0184185D01*
X0050320Y0184266D01*
X0050269Y0184348D01*
X0050221Y0184433D01*
X0050177Y0184519D01*
X0050136Y0184607D01*
X0050100Y0184697D01*
X0050066Y0184788D01*
X0050037Y0184880D01*
X0050011Y0184974D01*
X0049990Y0185068D01*
X0049972Y0185164D01*
X0049958Y0185260D01*
X0049948Y0185356D01*
X0049942Y0185453D01*
X0049940Y0185550D01*
X0081436Y0185550D02*
X0081438Y0185647D01*
X0081444Y0185744D01*
X0081454Y0185840D01*
X0081468Y0185936D01*
X0081486Y0186032D01*
X0081507Y0186126D01*
X0081533Y0186220D01*
X0081562Y0186312D01*
X0081596Y0186403D01*
X0081632Y0186493D01*
X0081673Y0186581D01*
X0081717Y0186667D01*
X0081765Y0186752D01*
X0081816Y0186834D01*
X0081870Y0186915D01*
X0081928Y0186993D01*
X0081989Y0187068D01*
X0082052Y0187141D01*
X0082119Y0187212D01*
X0082189Y0187279D01*
X0082261Y0187344D01*
X0082336Y0187405D01*
X0082414Y0187464D01*
X0082493Y0187519D01*
X0082575Y0187571D01*
X0082659Y0187619D01*
X0082745Y0187664D01*
X0082833Y0187706D01*
X0082922Y0187744D01*
X0083013Y0187778D01*
X0083105Y0187808D01*
X0083198Y0187835D01*
X0083293Y0187857D01*
X0083388Y0187876D01*
X0083484Y0187891D01*
X0083580Y0187902D01*
X0083677Y0187909D01*
X0083774Y0187912D01*
X0083871Y0187911D01*
X0083968Y0187906D01*
X0084064Y0187897D01*
X0084160Y0187884D01*
X0084256Y0187867D01*
X0084351Y0187846D01*
X0084444Y0187822D01*
X0084537Y0187793D01*
X0084629Y0187761D01*
X0084719Y0187725D01*
X0084807Y0187686D01*
X0084894Y0187642D01*
X0084979Y0187596D01*
X0085062Y0187545D01*
X0085143Y0187492D01*
X0085221Y0187435D01*
X0085298Y0187375D01*
X0085371Y0187312D01*
X0085442Y0187246D01*
X0085510Y0187177D01*
X0085576Y0187105D01*
X0085638Y0187031D01*
X0085697Y0186954D01*
X0085753Y0186875D01*
X0085806Y0186793D01*
X0085856Y0186710D01*
X0085901Y0186624D01*
X0085944Y0186537D01*
X0085983Y0186448D01*
X0086018Y0186358D01*
X0086049Y0186266D01*
X0086076Y0186173D01*
X0086100Y0186079D01*
X0086120Y0185984D01*
X0086136Y0185888D01*
X0086148Y0185792D01*
X0086156Y0185695D01*
X0086160Y0185598D01*
X0086160Y0185502D01*
X0086156Y0185405D01*
X0086148Y0185308D01*
X0086136Y0185212D01*
X0086120Y0185116D01*
X0086100Y0185021D01*
X0086076Y0184927D01*
X0086049Y0184834D01*
X0086018Y0184742D01*
X0085983Y0184652D01*
X0085944Y0184563D01*
X0085901Y0184476D01*
X0085856Y0184390D01*
X0085806Y0184307D01*
X0085753Y0184225D01*
X0085697Y0184146D01*
X0085638Y0184069D01*
X0085576Y0183995D01*
X0085510Y0183923D01*
X0085442Y0183854D01*
X0085371Y0183788D01*
X0085298Y0183725D01*
X0085221Y0183665D01*
X0085143Y0183608D01*
X0085062Y0183555D01*
X0084979Y0183504D01*
X0084894Y0183458D01*
X0084807Y0183414D01*
X0084719Y0183375D01*
X0084629Y0183339D01*
X0084537Y0183307D01*
X0084444Y0183278D01*
X0084351Y0183254D01*
X0084256Y0183233D01*
X0084160Y0183216D01*
X0084064Y0183203D01*
X0083968Y0183194D01*
X0083871Y0183189D01*
X0083774Y0183188D01*
X0083677Y0183191D01*
X0083580Y0183198D01*
X0083484Y0183209D01*
X0083388Y0183224D01*
X0083293Y0183243D01*
X0083198Y0183265D01*
X0083105Y0183292D01*
X0083013Y0183322D01*
X0082922Y0183356D01*
X0082833Y0183394D01*
X0082745Y0183436D01*
X0082659Y0183481D01*
X0082575Y0183529D01*
X0082493Y0183581D01*
X0082414Y0183636D01*
X0082336Y0183695D01*
X0082261Y0183756D01*
X0082189Y0183821D01*
X0082119Y0183888D01*
X0082052Y0183959D01*
X0081989Y0184032D01*
X0081928Y0184107D01*
X0081870Y0184185D01*
X0081816Y0184266D01*
X0081765Y0184348D01*
X0081717Y0184433D01*
X0081673Y0184519D01*
X0081632Y0184607D01*
X0081596Y0184697D01*
X0081562Y0184788D01*
X0081533Y0184880D01*
X0081507Y0184974D01*
X0081486Y0185068D01*
X0081468Y0185164D01*
X0081454Y0185260D01*
X0081444Y0185356D01*
X0081438Y0185453D01*
X0081436Y0185550D01*
D11*
X0101800Y0181800D03*
X0106800Y0174300D03*
X0111800Y0181800D03*
X0086800Y0156800D03*
X0076800Y0156800D03*
X0125550Y0141800D03*
X0125550Y0131800D03*
X0161800Y0156800D03*
X0161800Y0166800D03*
X0149300Y0181800D03*
X0186800Y0164300D03*
X0186800Y0154300D03*
X0189300Y0181800D03*
X0171800Y0046800D03*
X0171800Y0031800D03*
X0131800Y0031800D03*
X0131800Y0046800D03*
X0066800Y0021800D03*
X0066800Y0011800D03*
X0026800Y0015550D03*
X0018050Y0015550D03*
X0008050Y0015550D03*
X0026800Y0055550D03*
D12*
X0006800Y0066800D03*
X0006800Y0076800D03*
X0006800Y0086800D03*
X0006800Y0096800D03*
X0006800Y0106800D03*
X0006800Y0116800D03*
X0006800Y0126800D03*
X0006800Y0136800D03*
X0064300Y0075550D03*
X0064300Y0065550D03*
X0064300Y0055550D03*
X0126800Y0015550D03*
X0136800Y0015550D03*
X0146800Y0015550D03*
X0161800Y0015550D03*
X0171800Y0015550D03*
X0181800Y0015550D03*
X0194300Y0011800D03*
X0194300Y0021800D03*
X0194300Y0031800D03*
X0194300Y0041800D03*
X0194300Y0051800D03*
X0194300Y0066800D03*
X0194300Y0076800D03*
X0194300Y0086800D03*
X0194300Y0096800D03*
X0194300Y0106800D03*
X0194300Y0116800D03*
X0194300Y0126800D03*
X0194300Y0136800D03*
D13*
X0114400Y0131800D02*
X0109200Y0131800D01*
X0109200Y0121800D02*
X0114400Y0121800D01*
X0114400Y0111800D02*
X0109200Y0111800D01*
X0109200Y0101800D02*
X0114400Y0101800D01*
X0114400Y0091800D02*
X0109200Y0091800D01*
X0109200Y0081800D02*
X0114400Y0081800D01*
X0114400Y0071800D02*
X0109200Y0071800D01*
X0109200Y0061800D02*
X0114400Y0061800D01*
X0114400Y0051800D02*
X0109200Y0051800D01*
X0109200Y0041800D02*
X0114400Y0041800D01*
X0114400Y0031800D02*
X0109200Y0031800D01*
X0109200Y0021800D02*
X0114400Y0021800D01*
X0114400Y0011800D02*
X0109200Y0011800D01*
X0084400Y0011800D02*
X0079200Y0011800D01*
X0079200Y0021800D02*
X0084400Y0021800D01*
X0084400Y0031800D02*
X0079200Y0031800D01*
X0079200Y0041800D02*
X0084400Y0041800D01*
X0084400Y0051800D02*
X0079200Y0051800D01*
X0079200Y0061800D02*
X0084400Y0061800D01*
X0084400Y0071800D02*
X0079200Y0071800D01*
X0079200Y0081800D02*
X0084400Y0081800D01*
X0084400Y0091800D02*
X0079200Y0091800D01*
X0079200Y0101800D02*
X0084400Y0101800D01*
X0084400Y0111800D02*
X0079200Y0111800D01*
X0079200Y0121800D02*
X0084400Y0121800D01*
X0084400Y0131800D02*
X0079200Y0131800D01*
X0079200Y0141800D02*
X0084400Y0141800D01*
X0109200Y0141800D02*
X0114400Y0141800D01*
D14*
X0075924Y0185550D03*
X0068050Y0185550D03*
X0060176Y0185550D03*
D15*
X0052302Y0185550D03*
X0083798Y0185550D03*
D16*
X0036879Y0178099D03*
X0032154Y0174950D03*
X0036879Y0171800D03*
X0032154Y0168650D03*
X0036879Y0165501D03*
D17*
X0016800Y0157430D03*
X0016800Y0186170D03*
D18*
X0131800Y0176800D03*
X0136800Y0076800D03*
D19*
X0126800Y0076800D03*
X0131800Y0186800D03*
M02*
